<svg width="41" height="41" viewBox="0 0 41 41" fill="none" xmlns="http://www.w3.org/2000/svg">
<path d="M27.1625 0H13.8375C10.1692 0.00542243 6.65276 1.46504 4.0589 4.0589C1.46504 6.65276 0.00542243 10.1692 0 13.8375V27.1625C0 30.8324 1.45788 34.3521 4.05291 36.9471C6.64794 39.5421 10.1676 41 13.8375 41H27.1625C30.8324 41 34.3521 39.5421 36.9471 36.9471C39.5421 34.3521 41 30.8324 41 27.1625V13.8375C40.9946 10.1692 39.535 6.65276 36.9411 4.0589C34.3472 1.46504 30.8308 0.00542243 27.1625 0ZM37.925 21.525H31.898L26.363 30.791C26.179 31.0932 25.92 31.3427 25.611 31.5151C25.3021 31.6875 24.9538 31.7771 24.6 31.775H24.477C24.1003 31.7551 23.7364 31.6317 23.4253 31.4183C23.1143 31.2049 22.8681 30.9098 22.714 30.5655L16.1335 15.7235L12.0335 22.591C11.8495 22.8932 11.5905 23.1427 11.2815 23.3151C10.9726 23.4875 10.6243 23.5771 10.2705 23.575H3.0955V19.475H9.102L14.6575 10.2295C14.8511 9.90855 15.1289 9.64681 15.4608 9.47273C15.7927 9.29865 16.166 9.2189 16.5401 9.24215C16.9142 9.2654 17.2747 9.39075 17.5826 9.60459C17.8904 9.81842 18.1337 10.1126 18.286 10.455L24.887 25.297L28.987 18.4295C29.1684 18.1235 29.4264 17.8699 29.7355 17.6938C30.0446 17.5177 30.3942 17.4251 30.75 17.425H37.925V21.525Z" fill="#47D35E"/>
</svg>
