<svg width="35" height="33" viewBox="0 0 35 33" fill="none" xmlns="http://www.w3.org/2000/svg">
<path fill-rule="evenodd" clip-rule="evenodd" d="M35 0H0V33H35V0ZM25.9117 9.13C26.0397 8.99201 26.1372 8.83127 26.1984 8.65723C26.2595 8.4832 26.2832 8.29938 26.2679 8.1166C26.2526 7.93383 26.1987 7.75578 26.1094 7.59293C26.02 7.43008 25.8971 7.28572 25.7477 7.16834C25.5983 7.05097 25.4255 6.96295 25.2395 6.90946C25.0535 6.85597 24.8581 6.8381 24.6646 6.85689C24.4712 6.87568 24.2837 6.93075 24.1132 7.01887C23.9426 7.10699 23.7925 7.22637 23.6717 7.37L17.5 14.3522L11.3291 7.37C11.2075 7.22843 11.0572 7.11106 10.8871 7.0247C10.717 6.93833 10.5304 6.88471 10.3381 6.86693C10.1458 6.84915 9.95168 6.86757 9.76701 6.92113C9.58233 6.97469 9.41079 7.06232 9.26234 7.17892C9.11389 7.29552 8.9915 7.43877 8.90227 7.60035C8.81304 7.76193 8.75875 7.93862 8.74256 8.12015C8.72637 8.30168 8.7486 8.48443 8.80796 8.65779C8.86732 8.83115 8.96262 8.99166 9.08833 9.13L14.3865 15.125H13.125C12.7382 15.125 12.3673 15.2699 12.0938 15.5277C11.8203 15.7856 11.6667 16.1353 11.6667 16.5C11.6667 16.8647 11.8203 17.2144 12.0938 17.4723C12.3673 17.7301 12.7382 17.875 13.125 17.875H16.0417V19.25H13.125C12.7382 19.25 12.3673 19.3949 12.0938 19.6527C11.8203 19.9106 11.6667 20.2603 11.6667 20.625C11.6667 20.9897 11.8203 21.3394 12.0938 21.5973C12.3673 21.8551 12.7382 22 13.125 22H16.0417V24.75C16.0417 25.1147 16.1953 25.4644 16.4688 25.7223C16.7423 25.9801 17.1132 26.125 17.5 26.125C17.8868 26.125 18.2577 25.9801 18.5312 25.7223C18.8047 25.4644 18.9583 25.1147 18.9583 24.75V22H21.875C22.2618 22 22.6327 21.8551 22.9062 21.5973C23.1797 21.3394 23.3333 20.9897 23.3333 20.625C23.3333 20.2603 23.1797 19.9106 22.9062 19.6527C22.6327 19.3949 22.2618 19.25 21.875 19.25H18.9583V17.875H21.875C22.2618 17.875 22.6327 17.7301 22.9062 17.4723C23.1797 17.2144 23.3333 16.8647 23.3333 16.5C23.3333 16.1353 23.1797 15.7856 22.9062 15.5277C22.6327 15.2699 22.2618 15.125 21.875 15.125H20.6135L25.9117 9.13Z" fill="#47D35E"/>
</svg>
