<svg width="41" height="41" viewBox="0 0 41 41" fill="none" xmlns="http://www.w3.org/2000/svg">
<path d="M31.57 20.5C30.1367 19.2986 28.3147 18.6609 26.445 18.7063H14.4269C13.8789 18.7201 13.3338 18.6232 12.8242 18.4214C12.3145 18.2197 11.8508 17.9171 11.4609 17.5319C11.0709 17.1467 10.7626 16.6868 10.5546 16.1797C10.3465 15.6726 10.2429 15.1287 10.25 14.5806C10.2366 14.3673 10.2366 14.1533 10.25 13.94C10.4116 12.9606 10.9251 12.0739 11.6942 11.4464C12.4633 10.8189 13.435 10.4937 14.4269 10.5319H26.2656C27.2313 10.531 28.166 10.8732 28.9028 11.4974C29.6397 12.1216 30.1308 12.9873 30.2888 13.94H34.1325C33.9716 11.9641 33.073 10.1212 31.6154 8.77757C30.1579 7.43393 28.248 6.68802 26.2656 6.68813H22.2169V0.794376H19.0138V6.68813H14.4269C12.4445 6.68802 10.5346 7.43393 9.07706 8.77757C7.61948 10.1212 6.72091 11.9641 6.56 13.94C6.54722 14.1534 6.54722 14.3673 6.56 14.5806C6.56 15.6137 6.76348 16.6367 7.15883 17.5911C7.55418 18.5456 8.13365 19.4128 8.86416 20.1433C10.3395 21.6187 12.3405 22.4475 14.4269 22.4475H26.5731C27.1167 22.4338 27.6576 22.5291 28.1638 22.7277C28.67 22.9263 29.1314 23.2243 29.5206 23.604C29.9099 23.9837 30.2192 24.4375 30.4304 24.9386C30.6415 25.4398 30.7502 25.9781 30.75 26.5219C30.7766 26.8117 30.7766 27.1033 30.75 27.3931C30.5465 28.2947 30.0426 29.1004 29.3208 29.6778C28.5991 30.2552 27.7024 30.57 26.7781 30.5706H14.7344C13.8101 30.57 12.9135 30.2552 12.1917 29.6778C11.4699 29.1004 10.966 28.2947 10.7625 27.3931H6.89313C7.11334 29.3185 8.03421 31.0955 9.48027 32.3856C10.9263 33.6757 12.7965 34.3887 14.7344 34.3888H19.0138V40.2056H22.2169V34.3888H26.5731C28.511 34.3887 30.3812 33.6757 31.8272 32.3856C33.2733 31.0955 34.1942 29.3185 34.4144 27.3931V26.5219C34.4113 25.3709 34.1549 24.2347 33.6633 23.194C33.1717 22.1532 32.457 21.2335 31.57 20.5Z" fill="#47D35E"/>
</svg>
