<?xml version="1.0" encoding="utf-8"?>
<!-- Uploaded to: SVG Repo, www.svgrepo.com, Generator: SVG Repo Mixer Tools -->
<svg width="800px" height="800px" viewBox="-64.24 0 408.714 408.714" xmlns="http://www.w3.org/2000/svg"><defs><style>.a{fill:#ffffff;}.b{fill:#7a7473;}.c{fill:#211715;}.d{fill:#6dbf6b;}.e{fill:#79c6e0;}</style></defs><path class="a" d="M204.123,94.969a8.539,8.539,0,0,1,6.833-2,8.064,8.064,0,0,1,5.8,3.855,11.4,11.4,0,0,1,1.193,4.586,34.175,34.175,0,0,1-3.483,18.112,21.731,21.731,0,0,1-5.616,7.37c-2.295,1.83-4.6,2.705-8.409.778a51.142,51.142,0,0,1-2.223,8.03c-1.791,4.785-11.118,20.378-23.272,27.937l0,.236a107.114,107.114,0,0,0,1.429,15.568c.813,4.642.558,8.791,7.012,11.122.428.154,7.587,3.461,8.553,3.887,0,0-3.787,34.658-48.231,34.658s-39.333-36.931-39.333-36.931c.79-.34,3.97-1.46,4.39-1.61,6.46-2.33,6.2-6.48,7.02-11.13a124.091,124.091,0,0,0,1.39-15.42A50.123,50.123,0,0,1,103.6,152.47,57.848,57.848,0,0,1,91.93,128.952c-3.531,1.409-6.166-.413-8.23-2.059a21.715,21.715,0,0,1-5.615-7.37A34.166,34.166,0,0,1,74.6,101.411,11.386,11.386,0,0,1,75.8,96.825a8.06,8.06,0,0,1,5.8-3.855,8.539,8.539,0,0,1,6.833,2S87.415,41.553,147.86,41.553C204.749,41.553,204.123,94.969,204.123,94.969Z"/><path class="b" d="M204.087,94.766c-1.09.739-1.552.574-1.595.112-.063-.681-.14-1.375-.246-2.052a55.312,55.312,0,0,0-1.332-5.983,70.614,70.614,0,0,0-7.124-15.762c-4.523-7.519-10.051-13.375-19.044-15.438l-12.424-1.617a176.537,176.537,0,0,1-73.8,41.039,8.485,8.485,0,0,0-6.925-2.095,7.946,7.946,0,0,0-1.458.36c-5.134-11.094-5.1-30.912-1.45-44.586,3.544-13.277,11.864-26.16,23.657-31.543L112.916,9.97C126.675.776,152.388,1.244,162.9,5c10.027,3.581,19.116,10.386,22.766,17.8l8.131,7.194c8.857,4.861,13.23,13.278,16.084,20.57,4.149,10.6,5.3,28.379,1.035,42.4a8.541,8.541,0,0,0-6.79,2.006"/><path class="c" d="M187.735,21.586c-2.773-5.516-7.585-9.858-12.676-13.211a46.877,46.877,0,0,0-15.5-6.8,78.19,78.19,0,0,0-31.115-.021A46.3,46.3,0,0,0,111.7,7.9c-2.566,1.7-.165,5.854,2.423,4.145,8.319-5.495,19-7,28.776-7.156a72.152,72.152,0,0,1,13.586.96,42.075,42.075,0,0,1,13.665,5.141c5.41,3.127,10.584,7.346,13.437,13.021,1.387,2.76,5.529.333,4.144-2.423Z"/><path class="c" d="M198.34,124.652a27.489,27.489,0,0,1-1.3,6.924c-.268.9-.563,1.788-.865,2.675-.093.271-.183.542-.277.812-.142.405-.216.515-.075.206a55.624,55.624,0,0,1-3.569,6.527,69.34,69.34,0,0,1-14.568,16.954,30.923,30.923,0,0,1-10.908,5.986c-2.965.846-1.7,5.479,1.276,4.629,8.185-2.334,15-8.231,20.48-14.539a70.764,70.764,0,0,0,11.283-16.8,36.274,36.274,0,0,0,3.318-13.377c.1-3.089-4.7-3.086-4.8,0Z"/><path class="c" d="M88.548,124.677c3.057,16.386,11.782,32.127,26.427,40.837a35.7,35.7,0,0,0,12.819,4.7,2.478,2.478,0,0,0,2.953-1.676,2.419,2.419,0,0,0-1.677-2.953c-7.613-1.153-14.236-5.159-19.71-10.459a53.51,53.51,0,0,1-13.232-20.577A73.245,73.245,0,0,1,93.177,123.4a2.421,2.421,0,0,0-2.952-1.676,2.453,2.453,0,0,0-1.677,2.952Z"/><path class="c" d="M205.82,96.666a6.053,6.053,0,0,1,8.494.783c1.114,1.483,1.239,3.5,1.322,5.288a30.488,30.488,0,0,1-.336,6.424,31.7,31.7,0,0,1-4.276,11.609c-1.7,2.711-4.513,6.337-8.1,5.344-2.981-.825-4.254,3.8-1.276,4.628,8.816,2.439,14.606-8.03,16.934-14.918a36.056,36.056,0,0,0,1.865-12.865c-.172-4.353-1.226-8.555-5.186-10.945a11.031,11.031,0,0,0-12.833,1.258,2.421,2.421,0,0,0,0,3.394,2.449,2.449,0,0,0,3.394,0Z"/><path class="c" d="M90.123,93.272a11.063,11.063,0,0,0-11.862-1.761c-4.141,1.879-5.725,5.834-6.078,10.121-.7,8.559,1.855,18.07,7.48,24.665,2.992,3.508,7.308,6.373,12.075,5.249,3-.709,1.733-5.339-1.276-4.629-3.305.78-6.576-2.714-8.268-5.135a31.385,31.385,0,0,1-5.3-18.381c.05-1.919.1-4.176,1.249-5.807a6.026,6.026,0,0,1,8.59-.928,2.462,2.462,0,0,0,3.394,0,2.421,2.421,0,0,0,0-3.394Z"/><path class="c" d="M101.131,15.129c-10.366,4.805-17.647,14.59-21.98,24.9C74.707,50.6,73.285,62.436,73.776,73.836A59.408,59.408,0,0,0,77,92.013a2.465,2.465,0,0,0,2.952,1.676,2.418,2.418,0,0,0,1.676-2.952c-3.658-9.8-3.716-21.02-2.527-31.289,1.215-10.5,4.7-20.936,11.233-29.36a36.109,36.109,0,0,1,13.218-10.815,2.419,2.419,0,0,0,.861-3.283,2.454,2.454,0,0,0-3.284-.861Z"/><path class="c" d="M192.583,32.065c7.24,4.04,11.733,11.006,14.746,18.542,3.146,7.867,4.082,16.565,3.844,24.984a65.282,65.282,0,0,1-2.3,15.791c-.833,2.98,3.8,4.252,4.629,1.276a74.93,74.93,0,0,0,1.766-30.015,55.931,55.931,0,0,0-8.7-23.9A34.17,34.17,0,0,0,195.006,27.92c-2.7-1.507-5.124,2.637-2.423,4.145Z"/><path class="c" d="M174.108,57.957a25.9,25.9,0,0,1,15.114,10.53,61.245,61.245,0,0,1,9.561,19.675,48.638,48.638,0,0,1,1.309,6.716c.34,2.862,3.035,3.31,5.206,1.96,2.618-1.627.211-5.781-2.423-4.144q-1.165.559.942.393l.861.861c.092.145.114.823.153.314a3.4,3.4,0,0,0-.071-.617c-.069-.565-.147-1.129-.238-1.69-.176-1.088-.4-2.168-.652-3.24a49.632,49.632,0,0,0-1.5-5.214,75.136,75.136,0,0,0-4.694-10.433c-3.081-5.737-6.847-11.2-12.13-15.114a27.823,27.823,0,0,0-10.164-4.625c-3-.711-4.285,3.916-1.276,4.628Z"/><path class="c" d="M105.017,194.492c2.334-.975,4.874-1.557,7.086-2.808a10.809,10.809,0,0,0,5.22-7.044,76.91,76.91,0,0,0,1.415-9.071c.452-3.834.721-7.693.841-11.551.1-3.09-4.7-3.087-4.8,0a115,115,0,0,1-1.914,18.557c-.44,2.24-1.078,3.777-3.184,4.964a54.527,54.527,0,0,1-5.94,2.324,2.481,2.481,0,0,0-1.676,2.953,2.414,2.414,0,0,0,2.952,1.676Z"/><path class="c" d="M172.549,163.874a109.166,109.166,0,0,0,.836,11.583,89.131,89.131,0,0,0,1.424,9.051,10.862,10.862,0,0,0,4.531,6.726,12.6,12.6,0,0,0,2.067,1.1,6.793,6.793,0,0,0,1.345.543c.015-.015-.627-.282-.284-.12.777.367,1.568.707,2.35,1.064,1.971.9,3.932,1.823,5.913,2.7a2.476,2.476,0,0,0,3.284-.861,2.418,2.418,0,0,0-.861-3.284c-2.131-.944-4.239-1.939-6.36-2.9-2.062-.939-4.893-1.762-6.172-3.44a7.6,7.6,0,0,1-1.35-3.593c-.3-1.607-.527-3.238-.782-4.854a99.766,99.766,0,0,1-1.141-13.712c-.058-3.085-4.858-3.095-4.8,0Z"/><path class="a" d="M49.209,212.519c2.584-2.062,5.489-3.1,8.393-4.678,16.015-8.71,29.864-14.834,48.287-22.454a46.419,46.419,0,0,1,9.717-13.37,92.663,92.663,0,0,0,26.748,18.641c.554.251,1.171.558,1.35,1.139h4.8c.179-.581.8-.888,1.35-1.139A92.663,92.663,0,0,0,176.6,172.017a45.817,45.817,0,0,1,9.351,12.652c18.465,7.586,32.332,14.819,48.371,23.541,2.9,1.58,6.29,2.972,8.874,5.034l.073.059.833.452a31.412,31.412,0,0,1,4.248,2.914c4.718,3.943,8.535,11.575,10.46,18.447,2.949,10.528,13.9,59.992,17.094,78.294,3.031,17.383,3.309,33.992-5.167,41.059-8.659,7.219-28.615,12.357-38.773,14.605-2.138.473-4.482.946-6.982,1.415.314,4.906.613,9.006.857,11.34a15.882,15.882,0,0,1,.064,1.614c.072,1.528.25,5.272.4,9.414H64.386c.292-5.132.711-9.677.78-10.339.185-1.767.39-4.57.6-7.988q-4.066-1.317-8.3-2.767C45.4,367.635,19.8,359.482,10.885,348.024S-.372,320.14,6.031,303.545c6.742-17.472,20.8-55.766,26.314-68.522,3.382-7.819,4.685-9.334,10.571-17.073a70.906,70.906,0,0,1,5.855-5.22"/><path class="c" d="M64.386,395.257H226.305c3.089,0,3.094-4.8,0-4.8H64.386c-3.088,0-3.094,4.8,0,4.8Z"/><path class="c" d="M104.189,183.513c-15.083,6.254-30.036,12.795-44.463,20.462-4.091,2.174-8.542,4-12.214,6.847a2.412,2.412,0,0,0,0,3.394,2.461,2.461,0,0,0,3.394,0,27.73,27.73,0,0,1,4.95-2.815c1.8-.875,3.554-1.818,5.318-2.762q5.139-2.75,10.36-5.34c6.866-3.405,13.839-6.588,20.87-9.636,4.337-1.881,8.7-3.711,13.061-5.521a2.481,2.481,0,0,0,1.676-2.953,2.415,2.415,0,0,0-2.952-1.676Z"/><path class="c" d="M56.931,268.806c2.545,20.221,5.341,40.442,7.394,60.721a127.3,127.3,0,0,1,.226,15.529q-.263,12.225-.911,24.439c-.4,7.8-1.2,15.565-1.654,23.362-.178,3.086,4.622,3.075,4.8,0,.4-6.879,1.124-13.728,1.507-20.608q.679-12.206.992-24.431a148.082,148.082,0,0,0-.032-16.96c-.639-7.158-1.6-14.3-2.469-21.429q-2.474-20.317-5.053-40.623a2.478,2.478,0,0,0-2.4-2.4,2.415,2.415,0,0,0-2.4,2.4Z"/><path class="c" d="M228.705,392.857c-.5-13.421-1.634-26.814-2.367-40.226q-.5-9.192-.962-18.387a45.559,45.559,0,0,1,.43-7.486c1.132-10.021,2.436-20.023,3.719-30.026q2.376-18.522,4.814-37.038c1.034-7.9,2.1-15.8,3.093-23.705.042-.334.084-.669.124-1a2.413,2.413,0,0,0-2.4-2.4,2.459,2.459,0,0,0-2.4,2.4c-.828,6.883-1.782,13.752-2.682,20.626q-2.391,18.244-4.754,36.493c-1.375,10.67-2.758,21.34-4.011,32.025-.3,2.588-.749,5.227-.829,7.835-.06,1.96.182,3.973.282,5.93q.24,4.713.49,9.424c.383,7.19.778,14.379,1.228,21.565.345,5.5.86,10.986,1.113,16.486q.173,3.743.312,7.487c.115,3.079,4.915,3.094,4.8,0Z"/><path class="d" d="M157.323,202.094c-2.772-2.719-5.44-5.325-7.1-6.988L142,195.091c-1.666,1.672-4.363,4.3-7.16,7.049.438,1.892.892,3.8,1.547,5.944Z"/><path class="c" d="M154.881,212.164c-5.625,0-11.249-.124-16.874-.127a2.4,2.4,0,0,0,0,4.8c5.625,0,11.249.125,16.874.127a2.4,2.4,0,0,0,0-4.8Z"/><path class="c" d="M150.219,192.7q-4.11,0-8.22-.01a2.4,2.4,0,0,0,0,4.8q4.11.015,8.22.01a2.4,2.4,0,0,0,0-4.8Z"/><path class="c" d="M159.9,235.358c-.728-5.981-1.461-11.961-2.154-17.945a15.481,15.481,0,0,1-.257-3.534c.2-1.691.8-3.395,1.163-5.062.422-1.958.8-3.926,1.192-5.891a2.461,2.461,0,0,0-1.676-2.953,2.423,2.423,0,0,0-2.952,1.677c-.391,1.965-.77,3.933-1.193,5.891-.381,1.767-.92,3.517-1.2,5.3a15.333,15.333,0,0,0,.095,4.353c.7,6.057,1.443,12.108,2.179,18.161a2.476,2.476,0,0,0,2.4,2.4,2.414,2.414,0,0,0,2.4-2.4Z"/><path class="c" d="M132.525,202.776c.762,3.274,1.856,6.435,2.686,9.685a9.247,9.247,0,0,1,.371,2.977c-.016.219-.049.439-.076.657-.024.193-.13,1-.1.824-.059.437-.264,1.908-.38,2.723q-.279,1.962-.566,3.921-.756,5.18-1.53,10.357a2.478,2.478,0,0,0,1.676,2.952,2.417,2.417,0,0,0,2.952-1.676c.9-6.017,1.819-12.032,2.619-18.062a14.364,14.364,0,0,0-.17-5.262c-.4-1.825-1.079-3.575-1.592-5.369-.473-1.654-.867-3.328-1.257-5-.7-3.008-5.329-1.735-4.628,1.276Z"/><path class="a" d="M167.688,212.61c7.564-10.315,11.6-17.671,17.949-28a45.754,45.754,0,0,0-9.321-12.594,92.663,92.663,0,0,1-26.748,18.641c-.553.251-1.171.558-1.349,1.139a2.145,2.145,0,0,0,.309,1.511C148.874,194.026,165.16,209.5,167.688,212.61Z"/><path class="a" d="M124.518,212.61c-7.564-10.315-11.605-17.671-17.95-28a45.758,45.758,0,0,1,9.322-12.594,92.658,92.658,0,0,0,26.747,18.641c.554.251,1.171.558,1.35,1.139a2.145,2.145,0,0,1-.309,1.511C143.331,194.026,127.046,209.5,124.518,212.61Z"/><path class="c" d="M169.76,213.822c4.984-6.813,9.447-13.945,13.8-21.168q1.7-2.822,3.415-5.637c.735-1.2,1.4-2.192.732-3.617-.417-.89-.937-1.751-1.435-2.6a46.41,46.41,0,0,0-8.262-10.482,2.442,2.442,0,0,0-3.394,0A88.585,88.585,0,0,1,159.6,182.429a90.868,90.868,0,0,1-8.246,4.721c-2.66,1.34-6.663,2.551-5.309,6.431.749,2.145,3.118,3.865,4.678,5.4,2.765,2.723,5.545,5.43,8.3,8.159a97.06,97.06,0,0,1,6.962,7.166,2.416,2.416,0,0,0,3.394,0,2.455,2.455,0,0,0,0-3.394,104.114,104.114,0,0,0-7.542-7.74c-3.155-3.114-6.343-6.195-9.483-9.326-.506-.5-1.014-1.01-1.508-1.527-.149-.156-.288-.339-.449-.482-.294-.262.157.2.223.3-.1-.148-.026-.193-.007-.341l-.328,1.212c.172-.374,2.146-1.05,2.736-1.34q1.905-.936,3.761-1.965,3.829-2.121,7.449-4.6a94.093,94.093,0,0,0,13.776-11.394h-3.394a44.422,44.422,0,0,1,8.946,12.109V183.4c-5.808,9.462-11.386,19.028-17.95,28a2.418,2.418,0,0,0,.861,3.284A2.456,2.456,0,0,0,169.76,213.822Z"/><path class="c" d="M126.59,211.4c-6.563-8.971-12.142-18.537-17.949-28v2.423a44.422,44.422,0,0,1,8.946-12.109h-3.394a94.093,94.093,0,0,0,13.776,11.394q3.526,2.407,7.261,4.491,1.856,1.034,3.761,1.977c.643.318,2.73,1.012,2.924,1.433l-.328-1.212c.074.573-.006.164.274-.026a2.471,2.471,0,0,0-.329.362c-.407.437-.832.859-1.254,1.282-1.354,1.358-2.725,2.7-4.095,4.043-3.334,3.27-6.684,6.524-9.965,9.847-1.156,1.172-2.351,2.334-3.4,3.608a2.469,2.469,0,0,0,0,3.394,2.418,2.418,0,0,0,3.394,0,83.5,83.5,0,0,1,5.828-6.043c2.795-2.777,5.616-5.527,8.427-8.288,1.627-1.6,3.4-3.145,4.859-4.9a4.481,4.481,0,0,0,.972-3.916c-.432-1.568-1.845-2.285-3.2-2.917a87.285,87.285,0,0,1-8.262-4.42,89.184,89.184,0,0,1-17.252-13.5,2.445,2.445,0,0,0-3.394,0,46.36,46.36,0,0,0-8.262,10.482c-.5.849-1.017,1.706-1.435,2.6-.666,1.422,0,2.425.731,3.617q1.719,2.811,3.415,5.637c4.357,7.223,8.82,14.355,13.8,21.168a2.471,2.471,0,0,0,3.283.861A2.418,2.418,0,0,0,126.59,211.4Z"/><path class="c" d="M186.459,187.452a473.207,473.207,0,0,1,43.51,21.127c1.917,1.036,3.827,2.081,5.774,3.059a34.366,34.366,0,0,1,5.756,3.3,2.479,2.479,0,0,0,3.394,0,2.416,2.416,0,0,0,0-3.394c-3.225-2.508-6.972-4.113-10.544-6.052q-5.467-2.969-10.968-5.872c-7.191-3.778-14.459-7.408-21.844-10.792q-6.843-3.133-13.8-6.007a2.414,2.414,0,0,0-2.952,1.676,2.46,2.46,0,0,0,1.676,2.952Z"/><path class="a" d="M63.051,240.754c-3.724,1.794-13.257,7.015-16.253,8.8,8.691,14.592,28.432,49.9,35.677,61.995l.885-.224C76.238,286.609,69.147,262,63.051,240.754Z"/><path class="c" d="M84.547,310.337c-9.854-16.468-19.087-33.312-28.657-49.946-2.318-4.029-4.642-8.054-7.019-12.048l-.861,3.283c5.3-3.145,10.764-6.152,16.316-8.831a2.422,2.422,0,0,0,.861-3.283,2.451,2.451,0,0,0-3.284-.861c-5.552,2.679-11.015,5.685-16.316,8.831a2.436,2.436,0,0,0-.861,3.283c10.068,16.915,19.585,34.158,29.4,51.222,2.072,3.6,4.146,7.206,6.28,10.773,1.584,2.648,5.736.237,4.144-2.423Z"/><path class="e" d="M108.975,400.359c-13.745-47.982-34.929-121.213-49.02-170.4,34.106-9.771,100.253-28.682,123.008-35.2a.007.007,0,0,1,.01.006c17.924,62.154,33.443,117.806,48.4,170-24.585,7.044-98.061,28.629-122.389,35.6Z"/><path class="c" d="M111.289,399.721q-9.3-32.452-18.657-64.886-10.109-35.091-20.215-70.183-5.082-17.665-10.148-35.334l-1.676,2.952Q85.6,225.1,110.618,217.952l52.428-15q10.278-2.942,20.555-5.884l-1.849-.242.01.006-1.1-1.434q10.1,35.007,20.019,70.063,9.219,32.491,18.416,64.988,4.962,17.481,9.961,34.95l1.676-2.952c-15.164,4.345-30.3,8.782-45.445,13.2q-27.425,8-54.849,16-11.043,3.213-22.1,6.4l1.85.242,0,0c-2.694-1.518-5.117,2.627-2.422,4.145,1.413.8,3.647-.27,5.113-.692l4.559-1.316q5.3-1.533,10.6-3.073,12.96-3.768,25.914-7.551,27.782-8.107,55.564-16.21,11.244-3.272,22.5-6.513a2.436,2.436,0,0,0,1.677-2.952q-9.379-32.739-18.624-65.515-9.936-35.088-19.924-70.161-2.629-9.207-5.27-18.41-1.325-4.615-2.652-9.23l-1.374-4.77c-.452-1.567-.811-3.683-2.877-3.683a16.385,16.385,0,0,0-4.047,1.062L175,194.538l-9.7,2.777q-25.206,7.214-50.412,14.423-25.266,7.227-50.53,14.461l-5.038,1.443a2.435,2.435,0,0,0-1.676,2.952q9.42,32.883,18.9,65.749,10.075,34.969,20.147,69.941,4.992,17.354,9.969,34.713C107.51,403.961,112.143,402.7,111.289,399.721Z"/><path class="a" d="M209.587,349.51c-10.59-36.943-26.9-93.34-37.749-131.217"/><path class="c" d="M211.9,348.871q-7.167-24.994-14.374-49.977-7.78-27.006-15.557-54.015-3.916-13.611-7.819-27.224c-.85-2.964-5.483-1.7-4.629,1.276q7.258,25.329,14.562,50.645,7.752,26.914,15.5,53.828,3.847,13.371,7.684,26.744c.85,2.964,5.483,1.7,4.629-1.277Z"/><path class="a" d="M146.753,336.417c-2.515-.694-6.388-.707-8.5-2.158a24.225,24.225,0,0,1-5.466-5.779c-3.022-4.1-7.085-7.741-12.081-9.467-4.275-1.477-9.7-1.371-14.245-1.639-3.529-.208-11.985.155-12.939,4.839-1.434,7.038,4.4,8.682,8.547,10.175l45.591,13.4Z"/><path class="c" d="M145.979,333.907c-1.478-.381-3-.5-4.484-.863a7.933,7.933,0,0,1-3.783-2.367c-2.224-2.227-3.848-4.956-6.036-7.219a27.072,27.072,0,0,0-7.524-5.59,27.581,27.581,0,0,0-9.607-2.454c-2.944-.279-5.929-.394-8.885-.474a29.638,29.638,0,0,0-6.438.522,12.442,12.442,0,0,0-5.957,2.668,8.156,8.156,0,0,0-2.34,6.828c.465,5.878,5.659,8.012,10.5,9.745a2.4,2.4,0,0,0,1.276-4.629,23.025,23.025,0,0,1-4.642-1.958,4.282,4.282,0,0,1-2.345-3.206,6.2,6.2,0,0,1,.241-2.529c-.154.426.467-.683.2-.353a2.1,2.1,0,0,1,.816-.711A12.605,12.605,0,0,1,101.7,319.9a30.782,30.782,0,0,1,5.161-.1c2.919.155,5.857.168,8.761.532a21.5,21.5,0,0,1,13.606,7.546c2.1,2.374,3.73,5.125,6.17,7.194a11.687,11.687,0,0,0,4.435,2.5c1.595.449,3.267.549,4.872.963,2.993.772,4.27-3.856,1.276-4.629Z"/><path class="a" d="M147.291,339.446c-.493-3.787-.849-6.705-.965-8.02,12.175-1.787,75.823-10.876,87.255-13.5l12.431,47.561c-5.306,1.557-10.332,2.766-14.048,3.588-23.42,5.183-71.529,10.293-78.829,10.837C152.573,377.692,149.054,353,147.291,339.446Z"/><path class="c" d="M232.943,315.611c-3.936.9-7.944,1.519-11.925,2.179-6.411,1.064-12.832,2.062-19.256,3.045q-20.811,3.186-41.65,6.181-7.212,1.048-14.424,2.095a2.392,2.392,0,0,0-1.762,2.315c.565,6.3,1.557,12.579,2.416,18.843,1.09,7.945,2.2,15.889,3.407,23.818.325,2.143.551,4.355,1.072,6.462a2.417,2.417,0,0,0,2.314,1.762c15.213-1.145,30.416-3.207,45.525-5.273,18.746-2.562,37.687-5.378,55.607-11.678a74,74,0,0,0,14.334-6.447,21.522,21.522,0,0,0,9.114-10.4c2.044-4.974,2.531-10.559,2.523-15.889a116.139,116.139,0,0,0-1.942-19.408c-2.929-17.059-6.792-33.99-10.57-50.876-1.715-7.67-3.447-15.338-5.334-22.967-2.188-8.841-5.27-18.226-12.345-24.4a28.009,28.009,0,0,0-4.734-3.289c-2.7-1.509-5.122,2.635-2.422,4.145a22.9,22.9,0,0,1,4.411,3.11,26.474,26.474,0,0,1,4.952,6.528,50.664,50.664,0,0,1,4.808,12.407c1.7,6.578,3.2,13.211,4.7,19.836,3.906,17.2,7.72,34.453,10.993,51.791.877,4.644,1.686,9.3,2.167,14a65.6,65.6,0,0,1-.021,17.07c-.694,4.27-2.085,8.677-5.231,11.634-2.981,2.8-7.4,4.852-11.328,6.486-17.27,7.175-36.168,10.162-54.567,12.817-16.047,2.315-32.172,4.31-48.318,5.8-.775.072-1.551.142-2.327.2l2.314,1.762c-.43-1.742-.627-3.565-.9-5.336q-.813-5.3-1.565-10.6c-1.158-8.058-2.278-16.091-3.283-23.813-.351-2.695-.732-5.392-.975-8.1l-1.762,2.314c10.569-1.55,21.144-3.067,31.712-4.625,13.845-2.041,27.691-4.091,41.5-6.348,4.686-.766,9.41-1.47,14.041-2.528,3.01-.687,1.736-5.316-1.276-4.628Z"/><path class="a" d="M189.038,363.029c-1.864-1.289-3.916-2.7-5.906-4.057l2.544-1.137c4.135.011,9.8.425,10.781-6.235.656-4.431-6.678-7.452-9.854-8.4-4.087-1.215-8.835-3.042-13.073-3.107a24.4,24.4,0,0,0-13.668,4.481,22.716,22.716,0,0,1-6.662,3.345c-2.329.6-4.44-.346-6.876-.537l-5.872-1.054-8.116,30.631a18.755,18.755,0,0,1,3.144,3.117c1.951,2.549,3.671,7.01,5.187,9.886,2.842,5.393,6.134,8.01,11.115,11.5,2.051,1.437,6.547,4.077,9.013,4.753,3.289.9,7.577-3.683,9.565-5.126.49-.356,4.483,1.337,7.5-.873,1.217-.889,1.934-4.412,3.628-6.02,1.9-1.8,3.982-1.526,6.352-2.308,2.341-.773,4.208-6.274,3.111-8.154,10.37,4.152,11.76-10.717,4.349-16.281C194.187,366.615,191.822,364.955,189.038,363.029Z"/><path class="c" d="M146.324,349.785c2.905.283,5.446,1.166,8.349.2a34.833,34.833,0,0,0,7.289-3.91c4.35-2.7,9.388-4.249,14.507-3.266a71.53,71.53,0,0,1,7.884,2.209,39.484,39.484,0,0,1,4.8,1.7,13.375,13.375,0,0,1,4.115,2.709,2.7,2.7,0,0,1,.8,1.335c.16.7.035-.212.027.209,0,.025-.028.49-.014.361a5.85,5.85,0,0,1-.444,1.631,3.756,3.756,0,0,1-3.106,2.245,25.986,25.986,0,0,1-4.856.227c-3.089-.014-3.093,4.786,0,4.8,3.767.016,8.1.053,10.833-3a9.391,9.391,0,0,0,2.363-6.629,8.121,8.121,0,0,0-3.256-5.516c-3.615-2.925-8.138-4.136-12.5-5.485a36.244,36.244,0,0,0-9.178-1.894,22.9,22.9,0,0,0-9.059,1.591c-3.213,1.24-5.882,3.168-8.855,4.841a9.483,9.483,0,0,1-4.542,1.579c-1.727-.026-3.442-.566-5.161-.734a2.417,2.417,0,0,0-2.4,2.4,2.453,2.453,0,0,0,2.4,2.4Z"/><path class="c" d="M174.068,355.72c5.905,3.967,11.8,7.962,17.607,12.068,2.318,1.639,3.836,2.674,5.019,5.265a14.677,14.677,0,0,1,.856,3.475,11.723,11.723,0,0,1-.039,1.947c.05-.474-.1.518-.137.654a9.193,9.193,0,0,1-.31,1c.178-.477-.189.364-.278.514-.066.112-.138.22-.209.33-.328.506.316-.31-.1.119-.128.134-.808.691-.358.379-.151.105-.939.512-.433.3a5.136,5.136,0,0,1-.963.275c.5-.1.037,0-.1,0-.188,0-.375.008-.563,0a8.522,8.522,0,0,1-2.461-.632c-2.106-.814-3.57,1.839-2.71,3.526-.258-.5.019.018.015.176.014-.545-.024.279-.026.311a3.849,3.849,0,0,1-.153,1.008,8.107,8.107,0,0,1-1.114,2.624,1.905,1.905,0,0,1-.594.577c.5-.265-.251.061-.4.1-.315.085-.633.157-.952.225a13.481,13.481,0,0,0-4.42,1.411c-2.431,1.5-3.231,3.9-4.476,6.286a4.22,4.22,0,0,1-.4.694c.088-.11.235-.177-.047.033a3.907,3.907,0,0,1-1.473.527,9.226,9.226,0,0,1-2.678-.088,4.328,4.328,0,0,0-3.022.18,20.854,20.854,0,0,0-2.473,2.014,22.335,22.335,0,0,1-2.65,1.981,8.947,8.947,0,0,1-1.121.622,4.542,4.542,0,0,1-.844.265,1.61,1.61,0,0,1-.413.051c-1.911-.212-4.4-1.907-6.154-2.954a53.4,53.4,0,0,1-5.94-4.118,25.017,25.017,0,0,1-5.649-6.1c-1.853-2.929-3.072-6.206-4.7-9.257-1.457-2.725-5.6-.3-4.144,2.423,1.631,3.051,2.849,6.327,4.7,9.257a28.189,28.189,0,0,0,5.727,6.523,59.008,59.008,0,0,0,7.008,5.071,28.818,28.818,0,0,0,7.666,3.742c2.793.692,5.471-.694,7.657-2.317,1.083-.8,2.107-1.675,3.137-2.543a4.563,4.563,0,0,0,.589-.489l.179-.144a1.579,1.579,0,0,1-1.091.4c.1-.021.65.065.043-.009.325.04.649.1.974.145,2.847.4,6.319.244,8.351-2.107,1.563-1.81,1.772-5.145,4.091-6.181,1.434-.64,3.111-.605,4.581-1.159a6.767,6.767,0,0,0,3.335-3.065c1.426-2.431,2.374-5.889,1.024-8.536l-2.71,3.526c3.359,1.3,7.372,1.1,9.8-1.858,2.3-2.8,2.607-6.639,1.911-10.076a14.708,14.708,0,0,0-5.736-8.895c-2.833-2.115-5.778-4.087-8.69-6.089q-5.54-3.806-11.114-7.559c-2.571-1.727-4.976,2.43-2.422,4.145Z"/><path class="a" d="M146.617,345.174q.348-1.567.664-3.072c-23.9-7.7-60.946-18.908-88.8-28.793l-19.079,52c6.87,2.711,13.45,4.875,18.056,6.451,27.805,9.517,49.288,14.414,77.4,20.149C138.481,376.782,143.506,359.161,146.617,345.174Z"/><path class="c" d="M57.845,315.623C81.454,324,105.4,331.384,129.292,338.908q8.682,2.734,17.351,5.508l-1.676-2.952c-3.52,16.748-8.432,33.173-12.419,49.81L135.5,389.6c-22.34-4.56-44.559-9.583-66.307-16.487-8.5-2.7-16.992-5.531-25.348-8.653-8.084-3.02-16.2-6.41-23.414-11.2a31.738,31.738,0,0,1-7.936-7.054,37.735,37.735,0,0,1-6.364-13.266c-2.681-10.268-.93-20.558,2.81-30.3,5.965-15.544,11.715-31.169,17.672-46.716q2.073-5.41,4.191-10.805.9-2.3,1.829-4.584.378-.931.76-1.86.177-.432.357-.863c.066-.157.48-1.139.247-.59a62.131,62.131,0,0,1,5.23-10.259,47.034,47.034,0,0,1,7.491-9.343q1.842-1.632,3.75-3.188a2.416,2.416,0,0,0,0-3.394,2.455,2.455,0,0,0-3.394,0c-1.346,1.1-2.674,2.226-3.971,3.385a31.585,31.585,0,0,0-4.046,4.668,64.434,64.434,0,0,0-6.781,10.342c-3.109,6.294-5.553,12.956-8.088,19.5C17.931,265.059,11.947,281.3,5.8,297.474a104.646,104.646,0,0,0-4.264,12.4A51.089,51.089,0,0,0,.207,326.705c.913,9.578,4.722,19.562,11.937,26.181,6.526,5.987,14.856,9.858,22.942,13.246,7.423,3.11,15.051,5.672,22.665,8.263a575.6,575.6,0,0,0,67.729,18.027q4.37.913,8.744,1.8a2.442,2.442,0,0,0,2.952-1.676c3.988-16.637,8.9-33.062,12.419-49.81a2.461,2.461,0,0,0-1.676-2.952c-23.124-7.442-46.368-14.5-69.422-22.162Q68.779,314.4,59.121,311a2.423,2.423,0,0,0-2.953,1.676,2.449,2.449,0,0,0,1.677,2.952Z"/><path class="c" d="M161.644,51.371a171.952,171.952,0,0,1-55.458,35.274A182.057,182.057,0,0,1,88.056,92.7c-2.972.824-1.71,5.456,1.276,4.628a180.582,180.582,0,0,0,61.052-30.1,174.1,174.1,0,0,0,14.654-12.469c2.241-2.136-1.157-5.526-3.394-3.394Z"/><path class="c" d="M136.214,141.024a22.56,22.56,0,0,0,10.868,2.506c3.846-.025,7.785-.76,10.871-3.165a2.412,2.412,0,0,0,0-3.394,2.46,2.46,0,0,0-3.394,0c.7-.544.051-.055-.128.06-.223.143-.453.275-.687.4-.143.075-.921.417-.369.195-.312.125-.627.241-.948.344a17.11,17.11,0,0,1-5.7.762,17.852,17.852,0,0,1-5.442-.733c-.348-.1-.686-.228-1.029-.346-.112-.038-.22-.088-.331-.129.6.22.089.04-.027-.014q-.637-.3-1.259-.629a2.453,2.453,0,0,0-3.284.861,2.427,2.427,0,0,0,.861,3.284Z"/><path class="c" d="M146.085,115.132a52.384,52.384,0,0,1,1.227,5.616l-.086-.638a3.35,3.35,0,0,1,.021.775l.086-.638a1.891,1.891,0,0,1-.085.349l.242-.574a1.441,1.441,0,0,1-.123.225l.375-.486a1.2,1.2,0,0,1-.183.181l.485-.375a3.69,3.69,0,0,1-.444.235l.573-.242a3.275,3.275,0,0,1-.75.219l.638-.086a3.006,3.006,0,0,1-.7,0l.638.085c-.266-.037-.526-.1-.792-.137a2.655,2.655,0,0,0-1.849.242,2.4,2.4,0,0,0-.861,3.284,2.3,2.3,0,0,0,1.434,1.1c.562.075,1.107.22,1.677.245a5.283,5.283,0,0,0,2.417-.567,3.382,3.382,0,0,0,1.907-2.244,5.812,5.812,0,0,0-.027-2.47c-.3-1.809-.723-3.6-1.189-5.377a2.4,2.4,0,1,0-4.628,1.276Z"/><path class="c" d="M115.929,99.356c-.938,3.048-.326,10.058,5.447,10.655,7.631-.046,8.037-8.521,5.468-12.507C124.741,94.241,118.557,92.884,115.929,99.356Z"/><path class="c" d="M177.037,99.357c.938,3.047.327,10.058-5.446,10.654-7.631-.046-8.038-8.522-5.469-12.507C168.225,94.241,174.409,92.885,177.037,99.357Z"/></svg>